<svg  viewBox="0 0 300 200" fill="none" xmlns="http://www.w3.org/2000/svg" xmlns:xlink="http://www.w3.org/1999/xlink" xmlns:rdf="http://www.w3.org/1999/02/22-rdf-syntax-ns#" xmlns:sodipodi="http://sodipodi.sourceforge.net/DTD/sodipodi-0.dtd" xmlns:cc="http://web.resource.org/cc/" xmlns:dc="http://purl.org/dc/elements/1.1/" xmlns:svg="http://www.w3.org/2000/svg" xmlns:inkscape="http://www.inkscape.org/namespaces/inkscape" xmlns:ns1="http://sozi.baierouge.fr" id="svg153"  sodipodi:version="0.29win">
  
  
  <g id="g390">
    <g id="g169" style="fill:#bf0a30">
      <rect id="rect156" style="fill-rule:evenodd;stroke-width:1pt;fill:#bf0a30" height="10" width="247" y="0" x="0"/>
      <rect id="rect158" style="fill-rule:evenodd;stroke-width:1pt;fill:#bf0a30" height="10" width="247" y="20" x="0"/>
      <rect id="rect160" style="fill-rule:evenodd;stroke-width:1pt;fill:#bf0a30" height="10" width="247" y="40" x="0"/>
      <rect id="rect162" style="fill-rule:evenodd;stroke-width:1pt;fill:#bf0a30" height="10" width="247" y="60" x="0"/>
      <rect id="rect164" style="fill-rule:evenodd;stroke-width:1pt;fill:#bf0a30" height="10" width="247" y="80" x="0"/>
      <rect id="rect166" style="fill-rule:evenodd;stroke-width:1pt;fill:#bf0a30" height="10" width="247" y="100" x="0"/>
      <rect id="rect168" style="fill-rule:evenodd;stroke-width:1pt;fill:#bf0a30" height="10" width="247" y="120" x="0"/>
    </g>
  
  </g>
  <rect id="rect200" style="fill-rule:evenodd;stroke-width:1pt;fill:#002868" height="70" width="98.8" y="0" x="0"/>
  <g id="g274">
    <g id="g218">
      <g id="g194">
        <polygon id="polygon207" style="fill-rule:evenodd;fill:#ffffff" sodipodi:type="star" sodipodi:sides="5" sodipodi:r1="4.004000" sodipodi:r2="1.529391909" sodipodi:arg1="-1.570796" sodipodi:arg2="-0.942477796" transform="translate(8.2333 7)" sodipodi:cy="0.000000" sodipodi:cx="0.000000" points="0 -4.004 0.89895 -1.2373 3.808 -1.2373 1.4545 0.47261 2.3535 3.2393 0 1.5294 -2.3535 3.2393 -1.4545 0.47261 -3.808 -1.2373 -0.89895 -1.2373"/>
        <polygon id="polygon188" style="fill-rule:evenodd;fill:#ffffff" sodipodi:type="star" sodipodi:sides="5" sodipodi:r1="4.004000" sodipodi:r2="1.529391909" sodipodi:arg1="-1.570796" sodipodi:arg2="-0.942477796" transform="translate(24.7,7)" sodipodi:cy="0.000000" sodipodi:cx="0.000000" points="0 -4.004 0.89895 -1.2373 3.808 -1.2373 1.4545 0.47261 2.3535 3.2393 0 1.5294 -2.3535 3.2393 -1.4545 0.47261 -3.808 -1.2373 -0.89895 -1.2373"/>
        <polygon id="polygon189" style="fill-rule:evenodd;fill:#ffffff" sodipodi:type="star" sodipodi:sides="5" sodipodi:r1="4.004000" sodipodi:r2="1.529391909" sodipodi:arg1="-1.570796" sodipodi:arg2="-0.942477796" transform="translate(41.167 7)" sodipodi:cy="0.000000" sodipodi:cx="0.000000" points="0 -4.004 0.89895 -1.2373 3.808 -1.2373 1.4545 0.47261 2.3535 3.2393 0 1.5294 -2.3535 3.2393 -1.4545 0.47261 -3.808 -1.2373 -0.89895 -1.2373"/>
        <polygon id="polygon190" style="fill-rule:evenodd;fill:#ffffff" sodipodi:type="star" sodipodi:sides="5" sodipodi:r1="4.004000" sodipodi:r2="1.529391909" sodipodi:arg1="-1.570796" sodipodi:arg2="-0.942477796" transform="translate(57.633 7)" sodipodi:cy="0.000000" sodipodi:cx="0.000000" points="0 -4.004 0.89895 -1.2373 3.808 -1.2373 1.4545 0.47261 2.3535 3.2393 0 1.5294 -2.3535 3.2393 -1.4545 0.47261 -3.808 -1.2373 -0.89895 -1.2373"/>
        <polygon id="polygon191" style="fill-rule:evenodd;fill:#ffffff" sodipodi:type="star" sodipodi:sides="5" sodipodi:r1="4.004000" sodipodi:r2="1.529391909" sodipodi:arg1="-1.570796" sodipodi:arg2="-0.942477796" transform="translate(74.1,7)" sodipodi:cy="0.000000" sodipodi:cx="0.000000" points="0 -4.004 0.89895 -1.2373 3.808 -1.2373 1.4545 0.47261 2.3535 3.2393 0 1.5294 -2.3535 3.2393 -1.4545 0.47261 -3.808 -1.2373 -0.89895 -1.2373"/>
        <polygon id="polygon192" style="fill-rule:evenodd;fill:#ffffff" sodipodi:type="star" sodipodi:sides="5" sodipodi:r1="4.004000" sodipodi:r2="1.529391909" sodipodi:arg1="-1.570796" sodipodi:arg2="-0.942477796" transform="translate(90.567 7)" sodipodi:cy="0.000000" sodipodi:cx="0.000000" points="0 -4.004 0.89895 -1.2373 3.808 -1.2373 1.4545 0.47261 2.3535 3.2393 0 1.5294 -2.3535 3.2393 -1.4545 0.47261 -3.808 -1.2373 -0.89895 -1.2373"/>
      </g>
      <g id="g205">
        <polygon id="polygon193" style="fill-rule:evenodd;fill:#ffffff" sodipodi:type="star" sodipodi:sides="5" sodipodi:r1="4.004000" sodipodi:r2="1.529391909" sodipodi:arg1="-1.570796" sodipodi:arg2="-0.942477796" transform="translate(16.467 14)" sodipodi:cy="0.000000" sodipodi:cx="0.000000" points="0 -4.004 0.89895 -1.2373 3.808 -1.2373 1.4545 0.47261 2.3535 3.2393 0 1.5294 -2.3535 3.2393 -1.4545 0.47261 -3.808 -1.2373 -0.89895 -1.2373"/>
        <polygon id="polygon201" style="fill-rule:evenodd;fill:#ffffff" sodipodi:type="star" sodipodi:sides="5" sodipodi:r1="4.004000" sodipodi:r2="1.529391909" sodipodi:arg1="-1.570796" sodipodi:arg2="-0.942477796" transform="translate(32.933 14)" sodipodi:cy="0.000000" sodipodi:cx="0.000000" points="0 -4.004 0.89895 -1.2373 3.808 -1.2373 1.4545 0.47261 2.3535 3.2393 0 1.5294 -2.3535 3.2393 -1.4545 0.47261 -3.808 -1.2373 -0.89895 -1.2373"/>
        <polygon id="polygon202" style="fill-rule:evenodd;fill:#ffffff" sodipodi:type="star" sodipodi:sides="5" sodipodi:r1="4.004000" sodipodi:r2="1.529391909" sodipodi:arg1="-1.570796" sodipodi:arg2="-0.942477796" transform="translate(49.4,14)" sodipodi:cy="0.000000" sodipodi:cx="0.000000" points="0 -4.004 0.89895 -1.2373 3.808 -1.2373 1.4545 0.47261 2.3535 3.2393 0 1.5294 -2.3535 3.2393 -1.4545 0.47261 -3.808 -1.2373 -0.89895 -1.2373"/>
        <polygon id="polygon203" style="fill-rule:evenodd;fill:#ffffff" sodipodi:type="star" sodipodi:sides="5" sodipodi:r1="4.004000" sodipodi:r2="1.529391909" sodipodi:arg1="-1.570796" sodipodi:arg2="-0.942477796" transform="translate(65.867 14)" sodipodi:cy="0.000000" sodipodi:cx="0.000000" points="0 -4.004 0.89895 -1.2373 3.808 -1.2373 1.4545 0.47261 2.3535 3.2393 0 1.5294 -2.3535 3.2393 -1.4545 0.47261 -3.808 -1.2373 -0.89895 -1.2373"/>
        <polygon id="polygon204" style="fill-rule:evenodd;fill:#ffffff" sodipodi:type="star" sodipodi:sides="5" sodipodi:r1="4.004000" sodipodi:r2="1.529391909" sodipodi:arg1="-1.570796" sodipodi:arg2="-0.942477796" transform="translate(82.333 14)" sodipodi:cy="0.000000" sodipodi:cx="0.000000" points="0 -4.004 0.89895 -1.2373 3.808 -1.2373 1.4545 0.47261 2.3535 3.2393 0 1.5294 -2.3535 3.2393 -1.4545 0.47261 -3.808 -1.2373 -0.89895 -1.2373"/>
      </g>
    </g>
    <g id="g232" transform="translate(0,14)">
      <g id="g233">
        <polygon id="polygon234" style="fill-rule:evenodd;fill:#ffffff" sodipodi:type="star" sodipodi:sides="5" sodipodi:r1="4.004000" sodipodi:r2="1.529391909" sodipodi:arg1="-1.570796" sodipodi:arg2="-0.942477796" transform="translate(8.2333 7)" sodipodi:cy="0.000000" sodipodi:cx="0.000000" points="0 -4.004 0.89895 -1.2373 3.808 -1.2373 1.4545 0.47261 2.3535 3.2393 0 1.5294 -2.3535 3.2393 -1.4545 0.47261 -3.808 -1.2373 -0.89895 -1.2373"/>
        <polygon id="polygon235" style="fill-rule:evenodd;fill:#ffffff" sodipodi:type="star" sodipodi:sides="5" sodipodi:r1="4.004000" sodipodi:r2="1.529391909" sodipodi:arg1="-1.570796" sodipodi:arg2="-0.942477796" transform="translate(24.7,7)" sodipodi:cy="0.000000" sodipodi:cx="0.000000" points="0 -4.004 0.89895 -1.2373 3.808 -1.2373 1.4545 0.47261 2.3535 3.2393 0 1.5294 -2.3535 3.2393 -1.4545 0.47261 -3.808 -1.2373 -0.89895 -1.2373"/>
        <polygon id="polygon236" style="fill-rule:evenodd;fill:#ffffff" sodipodi:type="star" sodipodi:sides="5" sodipodi:r1="4.004000" sodipodi:r2="1.529391909" sodipodi:arg1="-1.570796" sodipodi:arg2="-0.942477796" transform="translate(41.167 7)" sodipodi:cy="0.000000" sodipodi:cx="0.000000" points="0 -4.004 0.89895 -1.2373 3.808 -1.2373 1.4545 0.47261 2.3535 3.2393 0 1.5294 -2.3535 3.2393 -1.4545 0.47261 -3.808 -1.2373 -0.89895 -1.2373"/>
        <polygon id="polygon237" style="fill-rule:evenodd;fill:#ffffff" sodipodi:type="star" sodipodi:sides="5" sodipodi:r1="4.004000" sodipodi:r2="1.529391909" sodipodi:arg1="-1.570796" sodipodi:arg2="-0.942477796" transform="translate(57.633 7)" sodipodi:cy="0.000000" sodipodi:cx="0.000000" points="0 -4.004 0.89895 -1.2373 3.808 -1.2373 1.4545 0.47261 2.3535 3.2393 0 1.5294 -2.3535 3.2393 -1.4545 0.47261 -3.808 -1.2373 -0.89895 -1.2373"/>
        <polygon id="polygon238" style="fill-rule:evenodd;fill:#ffffff" sodipodi:type="star" sodipodi:sides="5" sodipodi:r1="4.004000" sodipodi:r2="1.529391909" sodipodi:arg1="-1.570796" sodipodi:arg2="-0.942477796" transform="translate(74.1,7)" sodipodi:cy="0.000000" sodipodi:cx="0.000000" points="0 -4.004 0.89895 -1.2373 3.808 -1.2373 1.4545 0.47261 2.3535 3.2393 0 1.5294 -2.3535 3.2393 -1.4545 0.47261 -3.808 -1.2373 -0.89895 -1.2373"/>
        <polygon id="polygon239" style="fill-rule:evenodd;fill:#ffffff" sodipodi:type="star" sodipodi:sides="5" sodipodi:r1="4.004000" sodipodi:r2="1.529391909" sodipodi:arg1="-1.570796" sodipodi:arg2="-0.942477796" transform="translate(90.567 7)" sodipodi:cy="0.000000" sodipodi:cx="0.000000" points="0 -4.004 0.89895 -1.2373 3.808 -1.2373 1.4545 0.47261 2.3535 3.2393 0 1.5294 -2.3535 3.2393 -1.4545 0.47261 -3.808 -1.2373 -0.89895 -1.2373"/>
      </g>
      <g id="g240">
        <polygon id="polygon241" style="fill-rule:evenodd;fill:#ffffff" sodipodi:type="star" sodipodi:sides="5" sodipodi:r1="4.004000" sodipodi:r2="1.529391909" sodipodi:arg1="-1.570796" sodipodi:arg2="-0.942477796" transform="translate(16.467 14)" sodipodi:cy="0.000000" sodipodi:cx="0.000000" points="0 -4.004 0.89895 -1.2373 3.808 -1.2373 1.4545 0.47261 2.3535 3.2393 0 1.5294 -2.3535 3.2393 -1.4545 0.47261 -3.808 -1.2373 -0.89895 -1.2373"/>
        <polygon id="polygon242" style="fill-rule:evenodd;fill:#ffffff" sodipodi:type="star" sodipodi:sides="5" sodipodi:r1="4.004000" sodipodi:r2="1.529391909" sodipodi:arg1="-1.570796" sodipodi:arg2="-0.942477796" transform="translate(32.933 14)" sodipodi:cy="0.000000" sodipodi:cx="0.000000" points="0 -4.004 0.89895 -1.2373 3.808 -1.2373 1.4545 0.47261 2.3535 3.2393 0 1.5294 -2.3535 3.2393 -1.4545 0.47261 -3.808 -1.2373 -0.89895 -1.2373"/>
        <polygon id="polygon243" style="fill-rule:evenodd;fill:#ffffff" sodipodi:type="star" sodipodi:sides="5" sodipodi:r1="4.004000" sodipodi:r2="1.529391909" sodipodi:arg1="-1.570796" sodipodi:arg2="-0.942477796" transform="translate(49.4,14)" sodipodi:cy="0.000000" sodipodi:cx="0.000000" points="0 -4.004 0.89895 -1.2373 3.808 -1.2373 1.4545 0.47261 2.3535 3.2393 0 1.5294 -2.3535 3.2393 -1.4545 0.47261 -3.808 -1.2373 -0.89895 -1.2373"/>
        <polygon id="polygon244" style="fill-rule:evenodd;fill:#ffffff" sodipodi:type="star" sodipodi:sides="5" sodipodi:r1="4.004000" sodipodi:r2="1.529391909" sodipodi:arg1="-1.570796" sodipodi:arg2="-0.942477796" transform="translate(65.867 14)" sodipodi:cy="0.000000" sodipodi:cx="0.000000" points="0 -4.004 0.89895 -1.2373 3.808 -1.2373 1.4545 0.47261 2.3535 3.2393 0 1.5294 -2.3535 3.2393 -1.4545 0.47261 -3.808 -1.2373 -0.89895 -1.2373"/>
        <polygon id="polygon245" style="fill-rule:evenodd;fill:#ffffff" sodipodi:type="star" sodipodi:sides="5" sodipodi:r1="4.004000" sodipodi:r2="1.529391909" sodipodi:arg1="-1.570796" sodipodi:arg2="-0.942477796" transform="translate(82.333 14)" sodipodi:cy="0.000000" sodipodi:cx="0.000000" points="0 -4.004 0.89895 -1.2373 3.808 -1.2373 1.4545 0.47261 2.3535 3.2393 0 1.5294 -2.3535 3.2393 -1.4545 0.47261 -3.808 -1.2373 -0.89895 -1.2373"/>
      </g>
    </g>
    <g id="g246" transform="translate(0,28)">
      <g id="g247">
        <polygon id="polygon248" style="fill-rule:evenodd;fill:#ffffff" sodipodi:type="star" sodipodi:sides="5" sodipodi:r1="4.004000" sodipodi:r2="1.529391909" sodipodi:arg1="-1.570796" sodipodi:arg2="-0.942477796" transform="translate(8.2333 7)" sodipodi:cy="0.000000" sodipodi:cx="0.000000" points="0 -4.004 0.89895 -1.2373 3.808 -1.2373 1.4545 0.47261 2.3535 3.2393 0 1.5294 -2.3535 3.2393 -1.4545 0.47261 -3.808 -1.2373 -0.89895 -1.2373"/>
        <polygon id="polygon249" style="fill-rule:evenodd;fill:#ffffff" sodipodi:type="star" sodipodi:sides="5" sodipodi:r1="4.004000" sodipodi:r2="1.529391909" sodipodi:arg1="-1.570796" sodipodi:arg2="-0.942477796" transform="translate(24.7,7)" sodipodi:cy="0.000000" sodipodi:cx="0.000000" points="0 -4.004 0.89895 -1.2373 3.808 -1.2373 1.4545 0.47261 2.3535 3.2393 0 1.5294 -2.3535 3.2393 -1.4545 0.47261 -3.808 -1.2373 -0.89895 -1.2373"/>
        <polygon id="polygon250" style="fill-rule:evenodd;fill:#ffffff" sodipodi:type="star" sodipodi:sides="5" sodipodi:r1="4.004000" sodipodi:r2="1.529391909" sodipodi:arg1="-1.570796" sodipodi:arg2="-0.942477796" transform="translate(41.167 7)" sodipodi:cy="0.000000" sodipodi:cx="0.000000" points="0 -4.004 0.89895 -1.2373 3.808 -1.2373 1.4545 0.47261 2.3535 3.2393 0 1.5294 -2.3535 3.2393 -1.4545 0.47261 -3.808 -1.2373 -0.89895 -1.2373"/>
        <polygon id="polygon251" style="fill-rule:evenodd;fill:#ffffff" sodipodi:type="star" sodipodi:sides="5" sodipodi:r1="4.004000" sodipodi:r2="1.529391909" sodipodi:arg1="-1.570796" sodipodi:arg2="-0.942477796" transform="translate(57.633 7)" sodipodi:cy="0.000000" sodipodi:cx="0.000000" points="0 -4.004 0.89895 -1.2373 3.808 -1.2373 1.4545 0.47261 2.3535 3.2393 0 1.5294 -2.3535 3.2393 -1.4545 0.47261 -3.808 -1.2373 -0.89895 -1.2373"/>
        <polygon id="polygon252" style="fill-rule:evenodd;fill:#ffffff" sodipodi:type="star" sodipodi:sides="5" sodipodi:r1="4.004000" sodipodi:r2="1.529391909" sodipodi:arg1="-1.570796" sodipodi:arg2="-0.942477796" transform="translate(74.1,7)" sodipodi:cy="0.000000" sodipodi:cx="0.000000" points="0 -4.004 0.89895 -1.2373 3.808 -1.2373 1.4545 0.47261 2.3535 3.2393 0 1.5294 -2.3535 3.2393 -1.4545 0.47261 -3.808 -1.2373 -0.89895 -1.2373"/>
        <polygon id="polygon253" style="fill-rule:evenodd;fill:#ffffff" sodipodi:type="star" sodipodi:sides="5" sodipodi:r1="4.004000" sodipodi:r2="1.529391909" sodipodi:arg1="-1.570796" sodipodi:arg2="-0.942477796" transform="translate(90.567 7)" sodipodi:cy="0.000000" sodipodi:cx="0.000000" points="0 -4.004 0.89895 -1.2373 3.808 -1.2373 1.4545 0.47261 2.3535 3.2393 0 1.5294 -2.3535 3.2393 -1.4545 0.47261 -3.808 -1.2373 -0.89895 -1.2373"/>
      </g>
      <g id="g254">
        <polygon id="polygon255" style="fill-rule:evenodd;fill:#ffffff" sodipodi:type="star" sodipodi:sides="5" sodipodi:r1="4.004000" sodipodi:r2="1.529391909" sodipodi:arg1="-1.570796" sodipodi:arg2="-0.942477796" transform="translate(16.467 14)" sodipodi:cy="0.000000" sodipodi:cx="0.000000" points="0 -4.004 0.89895 -1.2373 3.808 -1.2373 1.4545 0.47261 2.3535 3.2393 0 1.5294 -2.3535 3.2393 -1.4545 0.47261 -3.808 -1.2373 -0.89895 -1.2373"/>
        <polygon id="polygon256" style="fill-rule:evenodd;fill:#ffffff" sodipodi:type="star" sodipodi:sides="5" sodipodi:r1="4.004000" sodipodi:r2="1.529391909" sodipodi:arg1="-1.570796" sodipodi:arg2="-0.942477796" transform="translate(32.933 14)" sodipodi:cy="0.000000" sodipodi:cx="0.000000" points="0 -4.004 0.89895 -1.2373 3.808 -1.2373 1.4545 0.47261 2.3535 3.2393 0 1.5294 -2.3535 3.2393 -1.4545 0.47261 -3.808 -1.2373 -0.89895 -1.2373"/>
        <polygon id="polygon257" style="fill-rule:evenodd;fill:#ffffff" sodipodi:type="star" sodipodi:sides="5" sodipodi:r1="4.004000" sodipodi:r2="1.529391909" sodipodi:arg1="-1.570796" sodipodi:arg2="-0.942477796" transform="translate(49.4,14)" sodipodi:cy="0.000000" sodipodi:cx="0.000000" points="0 -4.004 0.89895 -1.2373 3.808 -1.2373 1.4545 0.47261 2.3535 3.2393 0 1.5294 -2.3535 3.2393 -1.4545 0.47261 -3.808 -1.2373 -0.89895 -1.2373"/>
        <polygon id="polygon258" style="fill-rule:evenodd;fill:#ffffff" sodipodi:type="star" sodipodi:sides="5" sodipodi:r1="4.004000" sodipodi:r2="1.529391909" sodipodi:arg1="-1.570796" sodipodi:arg2="-0.942477796" transform="translate(65.867 14)" sodipodi:cy="0.000000" sodipodi:cx="0.000000" points="0 -4.004 0.89895 -1.2373 3.808 -1.2373 1.4545 0.47261 2.3535 3.2393 0 1.5294 -2.3535 3.2393 -1.4545 0.47261 -3.808 -1.2373 -0.89895 -1.2373"/>
        <polygon id="polygon259" style="fill-rule:evenodd;fill:#ffffff" sodipodi:type="star" sodipodi:sides="5" sodipodi:r1="4.004000" sodipodi:r2="1.529391909" sodipodi:arg1="-1.570796" sodipodi:arg2="-0.942477796" transform="translate(82.333 14)" sodipodi:cy="0.000000" sodipodi:cx="0.000000" points="0 -4.004 0.89895 -1.2373 3.808 -1.2373 1.4545 0.47261 2.3535 3.2393 0 1.5294 -2.3535 3.2393 -1.4545 0.47261 -3.808 -1.2373 -0.89895 -1.2373"/>
      </g>
    </g>
    <g id="g260" transform="translate(0,42)">
      <g id="g261">
        <polygon id="polygon262" style="fill-rule:evenodd;fill:#ffffff" sodipodi:type="star" sodipodi:sides="5" sodipodi:r1="4.004000" sodipodi:r2="1.529391909" sodipodi:arg1="-1.570796" sodipodi:arg2="-0.942477796" transform="translate(8.2333 7)" sodipodi:cy="0.000000" sodipodi:cx="0.000000" points="0 -4.004 0.89895 -1.2373 3.808 -1.2373 1.4545 0.47261 2.3535 3.2393 0 1.5294 -2.3535 3.2393 -1.4545 0.47261 -3.808 -1.2373 -0.89895 -1.2373"/>
        <polygon id="polygon263" style="fill-rule:evenodd;fill:#ffffff" sodipodi:type="star" sodipodi:sides="5" sodipodi:r1="4.004000" sodipodi:r2="1.529391909" sodipodi:arg1="-1.570796" sodipodi:arg2="-0.942477796" transform="translate(24.7,7)" sodipodi:cy="0.000000" sodipodi:cx="0.000000" points="0 -4.004 0.89895 -1.2373 3.808 -1.2373 1.4545 0.47261 2.3535 3.2393 0 1.5294 -2.3535 3.2393 -1.4545 0.47261 -3.808 -1.2373 -0.89895 -1.2373"/>
        <polygon id="polygon264" style="fill-rule:evenodd;fill:#ffffff" sodipodi:type="star" sodipodi:sides="5" sodipodi:r1="4.004000" sodipodi:r2="1.529391909" sodipodi:arg1="-1.570796" sodipodi:arg2="-0.942477796" transform="translate(41.167 7)" sodipodi:cy="0.000000" sodipodi:cx="0.000000" points="0 -4.004 0.89895 -1.2373 3.808 -1.2373 1.4545 0.47261 2.3535 3.2393 0 1.5294 -2.3535 3.2393 -1.4545 0.47261 -3.808 -1.2373 -0.89895 -1.2373"/>
        <polygon id="polygon265" style="fill-rule:evenodd;fill:#ffffff" sodipodi:type="star" sodipodi:sides="5" sodipodi:r1="4.004000" sodipodi:r2="1.529391909" sodipodi:arg1="-1.570796" sodipodi:arg2="-0.942477796" transform="translate(57.633 7)" sodipodi:cy="0.000000" sodipodi:cx="0.000000" points="0 -4.004 0.89895 -1.2373 3.808 -1.2373 1.4545 0.47261 2.3535 3.2393 0 1.5294 -2.3535 3.2393 -1.4545 0.47261 -3.808 -1.2373 -0.89895 -1.2373"/>
        <polygon id="polygon266" style="fill-rule:evenodd;fill:#ffffff" sodipodi:type="star" sodipodi:sides="5" sodipodi:r1="4.004000" sodipodi:r2="1.529391909" sodipodi:arg1="-1.570796" sodipodi:arg2="-0.942477796" transform="translate(74.1,7)" sodipodi:cy="0.000000" sodipodi:cx="0.000000" points="0 -4.004 0.89895 -1.2373 3.808 -1.2373 1.4545 0.47261 2.3535 3.2393 0 1.5294 -2.3535 3.2393 -1.4545 0.47261 -3.808 -1.2373 -0.89895 -1.2373"/>
        <polygon id="polygon267" style="fill-rule:evenodd;fill:#ffffff" sodipodi:type="star" sodipodi:sides="5" sodipodi:r1="4.004000" sodipodi:r2="1.529391909" sodipodi:arg1="-1.570796" sodipodi:arg2="-0.942477796" transform="translate(90.567 7)" sodipodi:cy="0.000000" sodipodi:cx="0.000000" points="0 -4.004 0.89895 -1.2373 3.808 -1.2373 1.4545 0.47261 2.3535 3.2393 0 1.5294 -2.3535 3.2393 -1.4545 0.47261 -3.808 -1.2373 -0.89895 -1.2373"/>
      </g>
      <g id="g268">
        <polygon id="polygon269" style="fill-rule:evenodd;fill:#ffffff" sodipodi:type="star" sodipodi:sides="5" sodipodi:r1="4.004000" sodipodi:r2="1.529391909" sodipodi:arg1="-1.570796" sodipodi:arg2="-0.942477796" transform="translate(16.467 14)" sodipodi:cy="0.000000" sodipodi:cx="0.000000" points="0 -4.004 0.89895 -1.2373 3.808 -1.2373 1.4545 0.47261 2.3535 3.2393 0 1.5294 -2.3535 3.2393 -1.4545 0.47261 -3.808 -1.2373 -0.89895 -1.2373"/>
        <polygon id="polygon270" style="fill-rule:evenodd;fill:#ffffff" sodipodi:type="star" sodipodi:sides="5" sodipodi:r1="4.004000" sodipodi:r2="1.529391909" sodipodi:arg1="-1.570796" sodipodi:arg2="-0.942477796" transform="translate(32.933 14)" sodipodi:cy="0.000000" sodipodi:cx="0.000000" points="0 -4.004 0.89895 -1.2373 3.808 -1.2373 1.4545 0.47261 2.3535 3.2393 0 1.5294 -2.3535 3.2393 -1.4545 0.47261 -3.808 -1.2373 -0.89895 -1.2373"/>
        <polygon id="polygon271" style="fill-rule:evenodd;fill:#ffffff" sodipodi:type="star" sodipodi:sides="5" sodipodi:r1="4.004000" sodipodi:r2="1.529391909" sodipodi:arg1="-1.570796" sodipodi:arg2="-0.942477796" transform="translate(49.4,14)" sodipodi:cy="0.000000" sodipodi:cx="0.000000" points="0 -4.004 0.89895 -1.2373 3.808 -1.2373 1.4545 0.47261 2.3535 3.2393 0 1.5294 -2.3535 3.2393 -1.4545 0.47261 -3.808 -1.2373 -0.89895 -1.2373"/>
        <polygon id="polygon272" style="fill-rule:evenodd;fill:#ffffff" sodipodi:type="star" sodipodi:sides="5" sodipodi:r1="4.004000" sodipodi:r2="1.529391909" sodipodi:arg1="-1.570796" sodipodi:arg2="-0.942477796" transform="translate(65.867 14)" sodipodi:cy="0.000000" sodipodi:cx="0.000000" points="0 -4.004 0.89895 -1.2373 3.808 -1.2373 1.4545 0.47261 2.3535 3.2393 0 1.5294 -2.3535 3.2393 -1.4545 0.47261 -3.808 -1.2373 -0.89895 -1.2373"/>
        <polygon id="polygon273" style="fill-rule:evenodd;fill:#ffffff" sodipodi:type="star" sodipodi:sides="5" sodipodi:r1="4.004000" sodipodi:r2="1.529391909" sodipodi:arg1="-1.570796" sodipodi:arg2="-0.942477796" transform="translate(82.333 14)" sodipodi:cy="0.000000" sodipodi:cx="0.000000" points="0 -4.004 0.89895 -1.2373 3.808 -1.2373 1.4545 0.47261 2.3535 3.2393 0 1.5294 -2.3535 3.2393 -1.4545 0.47261 -3.808 -1.2373 -0.89895 -1.2373"/>
      </g>
    </g>
    <g id="g211" transform="translate(0,56)">
      <polygon id="polygon212" style="fill-rule:evenodd;fill:#ffffff" sodipodi:type="star" sodipodi:sides="5" sodipodi:r1="4.004000" sodipodi:r2="1.529391909" sodipodi:arg1="-1.570796" sodipodi:arg2="-0.942477796" transform="translate(8.2333 7)" sodipodi:cy="0.000000" sodipodi:cx="0.000000" points="0 -4.004 0.89895 -1.2373 3.808 -1.2373 1.4545 0.47261 2.3535 3.2393 0 1.5294 -2.3535 3.2393 -1.4545 0.47261 -3.808 -1.2373 -0.89895 -1.2373"/>
      <polygon id="polygon213" style="fill-rule:evenodd;fill:#ffffff" sodipodi:type="star" sodipodi:sides="5" sodipodi:r1="4.004000" sodipodi:r2="1.529391909" sodipodi:arg1="-1.570796" sodipodi:arg2="-0.942477796" transform="translate(24.7,7)" sodipodi:cy="0.000000" sodipodi:cx="0.000000" points="0 -4.004 0.89895 -1.2373 3.808 -1.2373 1.4545 0.47261 2.3535 3.2393 0 1.5294 -2.3535 3.2393 -1.4545 0.47261 -3.808 -1.2373 -0.89895 -1.2373"/>
      <polygon id="polygon214" style="fill-rule:evenodd;fill:#ffffff" sodipodi:type="star" sodipodi:sides="5" sodipodi:r1="4.004000" sodipodi:r2="1.529391909" sodipodi:arg1="-1.570796" sodipodi:arg2="-0.942477796" transform="translate(41.167 7)" sodipodi:cy="0.000000" sodipodi:cx="0.000000" points="0 -4.004 0.89895 -1.2373 3.808 -1.2373 1.4545 0.47261 2.3535 3.2393 0 1.5294 -2.3535 3.2393 -1.4545 0.47261 -3.808 -1.2373 -0.89895 -1.2373"/>
      <polygon id="polygon215" style="fill-rule:evenodd;fill:#ffffff" sodipodi:type="star" sodipodi:sides="5" sodipodi:r1="4.004000" sodipodi:r2="1.529391909" sodipodi:arg1="-1.570796" sodipodi:arg2="-0.942477796" transform="translate(57.633 7)" sodipodi:cy="0.000000" sodipodi:cx="0.000000" points="0 -4.004 0.89895 -1.2373 3.808 -1.2373 1.4545 0.47261 2.3535 3.2393 0 1.5294 -2.3535 3.2393 -1.4545 0.47261 -3.808 -1.2373 -0.89895 -1.2373"/>
      <polygon id="polygon216" style="fill-rule:evenodd;fill:#ffffff" sodipodi:type="star" sodipodi:sides="5" sodipodi:r1="4.004000" sodipodi:r2="1.529391909" sodipodi:arg1="-1.570796" sodipodi:arg2="-0.942477796" transform="translate(74.1,7)" sodipodi:cy="0.000000" sodipodi:cx="0.000000" points="0 -4.004 0.89895 -1.2373 3.808 -1.2373 1.4545 0.47261 2.3535 3.2393 0 1.5294 -2.3535 3.2393 -1.4545 0.47261 -3.808 -1.2373 -0.89895 -1.2373"/>
      <polygon id="polygon217" style="fill-rule:evenodd;fill:#ffffff" sodipodi:type="star" sodipodi:sides="5" sodipodi:r1="4.004000" sodipodi:r2="1.529391909" sodipodi:arg1="-1.570796" sodipodi:arg2="-0.942477796" transform="translate(90.567 7)" sodipodi:cy="0.000000" sodipodi:cx="0.000000" points="0 -4.004 0.89895 -1.2373 3.808 -1.2373 1.4545 0.47261 2.3535 3.2393 0 1.5294 -2.3535 3.2393 -1.4545 0.47261 -3.808 -1.2373 -0.89895 -1.2373"/>
    </g>
  </g>
  
</svg>