<svg width="42" height="200" viewBox="0 0 42 200" fill="none" xmlns="http://www.w3.org/2000/svg">
<path d="M12.3066 120.892L12.5734 18.6384C12.5763 17.5339 13.474 16.6407 14.5786 16.6435L25.5222 16.6711C26.6267 16.6739 27.5198 17.5716 27.5169 18.6762L27.2501 120.93C27.2472 122.035 26.3494 122.928 25.2449 122.925L14.3013 122.897C13.1968 122.895 12.3037 121.997 12.3066 120.892Z" fill="url(#paint0_linear)"/>
<g filter="url(#filter0_d)">
<path d="M8.76162 17.624L2.15625 1.85425L39.5151 1.94859L30.4283 18.0037L30.4283 18.0037C30.0927 18.5967 29.9249 18.8931 29.6881 19.1086C29.4785 19.2993 29.2309 19.4433 28.9615 19.5311C28.6571 19.6303 28.3164 19.6294 27.6351 19.6277L11.7048 19.5874C10.9373 19.5855 10.5536 19.5845 10.2205 19.4614C9.92609 19.3526 9.66145 19.1761 9.44796 18.9461C9.20638 18.6858 9.05813 18.3319 8.76162 17.624Z" fill="url(#paint1_linear)"/>
</g>
<path d="M29.2882 102.275L8.87292 102.223C8.32064 102.222 7.87176 102.668 7.87032 103.221L7.86398 105.648C7.86254 106.2 8.30909 106.649 8.86137 106.65L29.2767 106.702C29.829 106.703 30.2778 106.257 30.2793 105.704L30.2856 103.277C30.2871 102.725 29.8405 102.276 29.2882 102.275Z" fill="#434343"/>
<g filter="url(#filter1_d)">
<path d="M10.2273 106.208L10.2694 118.317C10.2713 118.87 10.7205 119.314 11.2728 119.31L12.3938 119.302C12.9461 119.299 13.3922 118.848 13.3903 118.295L13.3483 106.186C13.3464 105.633 12.8971 105.189 12.3448 105.193L11.2238 105.201C10.6716 105.204 10.2254 105.655 10.2273 106.208Z" fill="#434343"/>
</g>
<g filter="url(#filter2_d)">
<path d="M25.1176 105.82L25.1596 117.928C25.1615 118.48 25.6108 118.925 26.1631 118.921L27.3532 118.913C27.9055 118.909 28.3516 118.458 28.3497 117.906L28.3077 105.798C28.3058 105.245 27.8565 104.801 27.3042 104.805L26.1141 104.813C25.5618 104.817 25.1157 105.268 25.1176 105.82Z" fill="#434343"/>
</g>
<path d="M29.2681 109.653L8.85278 109.602C8.3005 109.6 7.85161 110.047 7.85017 110.599L7.84384 113.026C7.8424 113.579 8.28894 114.028 8.84123 114.029L29.2565 114.081C29.8088 114.082 30.2577 113.635 30.2591 113.083L30.2655 110.656C30.2669 110.104 29.8204 109.655 29.2681 109.653Z" fill="#434343"/>
<path d="M24.6119 176.051L13.1627 176.022C12.6104 176.02 12.1616 176.467 12.1601 177.019L12.1037 198.631C12.1023 199.184 12.5488 199.632 13.1011 199.634L24.5503 199.663C25.1026 199.664 25.5515 199.217 25.5529 198.665L25.6093 177.053C25.6107 176.501 25.1642 176.052 24.6119 176.051Z" fill="url(#paint2_linear)"/>
<g filter="url(#filter3_d)">
<path d="M26.1177 171.627L11.6798 171.591C11.1275 171.589 10.6786 172.036 10.6772 172.588L10.667 176.491C10.6656 177.044 11.1121 177.492 11.6644 177.494L26.1023 177.53C26.6546 177.532 27.1035 177.085 27.1049 176.533L27.1151 172.63C27.1165 172.077 26.67 171.629 26.1177 171.627Z" fill="url(#paint3_linear)"/>
</g>
<g filter="url(#filter4_i)">
<rect width="4.48307" height="20.6605" rx="2.24154" transform="matrix(0.999997 0.00252536 -0.00260948 0.999997 18.1323 178.986)" fill="#E2E2E2" fill-opacity="0.04"/>
</g>
<g filter="url(#filter5_d)">
<path d="M29.2488 117.032L8.83349 116.98C8.28121 116.979 7.83233 117.426 7.83089 117.978L7.68977 172.056C7.68833 172.609 8.13487 173.057 8.68716 173.059L29.1025 173.11C29.6547 173.112 30.1036 172.665 30.1051 172.113L30.2462 118.035C30.2476 117.482 29.8011 117.033 29.2488 117.032Z" fill="url(#paint4_linear)"/>
</g>
<g filter="url(#filter6_d)">
<path d="M24.1734 154.651L24.1868 149.486L25.6797 149.49L25.6662 154.655L27.164 153.921L24.909 159.08L22.6809 153.909L24.1734 154.651Z" fill="#C4C4C4"/>
</g>
<ellipse rx="2.24154" ry="2.21363" transform="matrix(0.999997 0.00252536 -0.00260948 0.999997 26.4956 123.666)" fill="#3C3C3C"/>
<ellipse rx="2.24154" ry="2.21363" transform="matrix(0.999997 0.00252536 -0.00260948 0.999997 26.4764 131.045)" fill="#3C3C3C"/>
<ellipse rx="2.24154" ry="2.21363" transform="matrix(0.999997 0.00252536 -0.00260948 0.999997 19.0047 131.026)" fill="#3C3C3C"/>
<ellipse rx="2.24154" ry="2.21363" transform="matrix(0.999997 0.00252536 -0.00260948 0.999997 19.024 123.647)" fill="#3C3C3C"/>
<defs>
<filter id="filter0_d" x="0.15625" y="0.854248" width="41.3588" height="21.7738" filterUnits="userSpaceOnUse" color-interpolation-filters="sRGB">
<feFlood flood-opacity="0" result="BackgroundImageFix"/>
<feColorMatrix in="SourceAlpha" type="matrix" values="0 0 0 0 0 0 0 0 0 0 0 0 0 0 0 0 0 0 127 0"/>
<feOffset dy="1"/>
<feGaussianBlur stdDeviation="1"/>
<feColorMatrix type="matrix" values="0 0 0 0 0 0 0 0 0 0 0 0 0 0 0 0 0 0 0.1 0"/>
<feBlend mode="normal" in2="BackgroundImageFix" result="effect1_dropShadow"/>
<feBlend mode="normal" in="SourceGraphic" in2="effect1_dropShadow" result="shape"/>
</filter>
<filter id="filter1_d" x="10.2273" y="105.193" width="5.16299" height="16.1176" filterUnits="userSpaceOnUse" color-interpolation-filters="sRGB">
<feFlood flood-opacity="0" result="BackgroundImageFix"/>
<feColorMatrix in="SourceAlpha" type="matrix" values="0 0 0 0 0 0 0 0 0 0 0 0 0 0 0 0 0 0 127 0"/>
<feOffset dx="1" dy="1"/>
<feGaussianBlur stdDeviation="0.5"/>
<feColorMatrix type="matrix" values="0 0 0 0 0 0 0 0 0 0 0 0 0 0 0 0 0 0 0.1 0"/>
<feBlend mode="normal" in2="BackgroundImageFix" result="effect1_dropShadow"/>
<feBlend mode="normal" in="SourceGraphic" in2="effect1_dropShadow" result="shape"/>
</filter>
<filter id="filter2_d" x="22.1176" y="103.805" width="7.2321" height="18.1163" filterUnits="userSpaceOnUse" color-interpolation-filters="sRGB">
<feFlood flood-opacity="0" result="BackgroundImageFix"/>
<feColorMatrix in="SourceAlpha" type="matrix" values="0 0 0 0 0 0 0 0 0 0 0 0 0 0 0 0 0 0 127 0"/>
<feOffset dx="-1" dy="1"/>
<feGaussianBlur stdDeviation="1"/>
<feColorMatrix type="matrix" values="0 0 0 0 0 0 0 0 0 0 0 0 0 0 0 0 0 0 0.1 0"/>
<feBlend mode="normal" in2="BackgroundImageFix" result="effect1_dropShadow"/>
<feBlend mode="normal" in="SourceGraphic" in2="effect1_dropShadow" result="shape"/>
</filter>
<filter id="filter3_d" x="8.66699" y="170.591" width="20.4481" height="9.93946" filterUnits="userSpaceOnUse" color-interpolation-filters="sRGB">
<feFlood flood-opacity="0" result="BackgroundImageFix"/>
<feColorMatrix in="SourceAlpha" type="matrix" values="0 0 0 0 0 0 0 0 0 0 0 0 0 0 0 0 0 0 127 0"/>
<feOffset dy="1"/>
<feGaussianBlur stdDeviation="1"/>
<feColorMatrix type="matrix" values="0 0 0 0 0 0 0 0 0 0 0 0 0 0 0 0 0 0 0.25 0"/>
<feBlend mode="normal" in2="BackgroundImageFix" result="effect1_dropShadow"/>
<feBlend mode="normal" in="SourceGraphic" in2="effect1_dropShadow" result="shape"/>
</filter>
<filter id="filter4_i" x="18.0842" y="178.992" width="4.52529" height="20.6605" filterUnits="userSpaceOnUse" color-interpolation-filters="sRGB">
<feFlood flood-opacity="0" result="BackgroundImageFix"/>
<feBlend mode="normal" in="SourceGraphic" in2="BackgroundImageFix" result="shape"/>
<feColorMatrix in="SourceAlpha" type="matrix" values="0 0 0 0 0 0 0 0 0 0 0 0 0 0 0 0 0 0 127 0" result="hardAlpha"/>
<feOffset/>
<feGaussianBlur stdDeviation="1"/>
<feComposite in2="hardAlpha" operator="arithmetic" k2="-1" k3="1"/>
<feColorMatrix type="matrix" values="0 0 0 0 0.235294 0 0 0 0 0.235294 0 0 0 0 0.235294 0 0 0 1 0"/>
<feBlend mode="normal" in2="shape" result="effect1_innerShadow"/>
</filter>
<filter id="filter5_d" x="5.68982" y="115.98" width="26.5564" height="60.13" filterUnits="userSpaceOnUse" color-interpolation-filters="sRGB">
<feFlood flood-opacity="0" result="BackgroundImageFix"/>
<feColorMatrix in="SourceAlpha" type="matrix" values="0 0 0 0 0 0 0 0 0 0 0 0 0 0 0 0 0 0 127 0"/>
<feOffset dy="1"/>
<feGaussianBlur stdDeviation="1"/>
<feColorMatrix type="matrix" values="0 0 0 0 0 0 0 0 0 0 0 0 0 0 0 0 0 0 0.25 0"/>
<feBlend mode="normal" in2="BackgroundImageFix" result="effect1_dropShadow"/>
<feBlend mode="normal" in="SourceGraphic" in2="effect1_dropShadow" result="shape"/>
</filter>
<filter id="filter6_d" x="21.6809" y="148.486" width="6.48306" height="11.5942" filterUnits="userSpaceOnUse" color-interpolation-filters="sRGB">
<feFlood flood-opacity="0" result="BackgroundImageFix"/>
<feColorMatrix in="SourceAlpha" type="matrix" values="0 0 0 0 0 0 0 0 0 0 0 0 0 0 0 0 0 0 127 0"/>
<feOffset/>
<feGaussianBlur stdDeviation="0.5"/>
<feColorMatrix type="matrix" values="0 0 0 0 0.196078 0 0 0 0 0.196078 0 0 0 0 0.196078 0 0 0 1 0"/>
<feBlend mode="normal" in2="BackgroundImageFix" result="effect1_dropShadow"/>
<feBlend mode="normal" in="SourceGraphic" in2="effect1_dropShadow" result="shape"/>
</filter>
<linearGradient id="paint0_linear" x1="12.3013" y1="122.892" x2="27.2449" y2="122.931" gradientUnits="userSpaceOnUse">
<stop offset="0.427083" stop-color="#323232"/>
<stop offset="1" stop-color="#8B8B8B"/>
</linearGradient>
<linearGradient id="paint1_linear" x1="7.44449" y1="7.65708" x2="36.9737" y2="8.38365" gradientUnits="userSpaceOnUse">
<stop stop-color="#323232"/>
<stop offset="1" stop-color="#8B8B8B"/>
</linearGradient>
<linearGradient id="paint2_linear" x1="13.446" y1="199.635" x2="22.4121" y2="199.658" gradientUnits="userSpaceOnUse">
<stop offset="0.372775" stop-color="#6B6B6B"/>
<stop offset="1" stop-color="#ACACAC"/>
</linearGradient>
<linearGradient id="paint3_linear" x1="12.3082" y1="177.495" x2="23.2668" y2="177.524" gradientUnits="userSpaceOnUse">
<stop offset="0.372775" stop-color="#5C5C5C"/>
<stop offset="1" stop-color="#ACACAC"/>
</linearGradient>
<linearGradient id="paint4_linear" x1="9.92869" y1="173.062" x2="24.8722" y2="173.101" gradientUnits="userSpaceOnUse">
<stop offset="0.372775" stop-color="#3C3C3C"/>
<stop offset="1" stop-color="#5C5C5C"/>
</linearGradient>
</defs>
</svg>
