<svg xmlns="http://www.w3.org/2000/svg" xmlns:xlink="http://www.w3.org/1999/xlink" width="24" height="24" viewBox="0 0 24 24">
  <defs>
    <linearGradient id="linear-gradient" x1="-0.136" y1="1.221" x2="1.09" gradientUnits="objectBoundingBox">
      <stop offset="0" stop-color="#dda037"/>
      <stop offset="0.326" stop-color="#f1cf47"/>
      <stop offset="0.734" stop-color="#f1cf47"/>
      <stop offset="1" stop-color="#dda037"/>
    </linearGradient>
    <filter id="Intersection_97" x="-18" y="-15" width="60" height="60" filterUnits="userSpaceOnUse">
      <feOffset dy="3" input="SourceAlpha"/>
      <feGaussianBlur stdDeviation="6" result="blur"/>
      <feFlood flood-color="#f6fafe"/>
      <feComposite operator="in" in2="blur"/>
      <feComposite in="SourceGraphic"/>
    </filter>
    <clipPath id="clip-editor">
      <rect width="24" height="24"/>
    </clipPath>
  </defs>
  <g id="editor" clip-path="url(#clip-editor)">
    <g transform="matrix(1, 0, 0, 1, 0, 0)" filter="url(#Intersection_97)">
      <path id="Intersection_97-2" data-name="Intersection 97" d="M889.151,6445.917h-.013a.748.748,0,0,1-.747-.758v-3.99a1.515,1.515,0,0,1,.441-1.064l12.891-12.864a.76.76,0,0,1,1.054,0l4.28,4.256a.759.759,0,0,1,0,1.064l-12.837,12.916a1.521,1.521,0,0,1-1.068.439Zm20.13-16.642-4.265-4.256a.756.756,0,0,1,0-1.065l1.6-1.6a1.508,1.508,0,0,1,2.133,0l3.2,3.191a1.5,1.5,0,0,1,0,2.129l-1.6,1.6a.76.76,0,0,1-1.067,0Z" transform="translate(-888.39 -6421.92)" fill="url(#linear-gradient)"/>
    </g>
  </g>
</svg>
