<svg xmlns="http://www.w3.org/2000/svg" width="30" height="20.005" viewBox="0 0 30 20.005"><defs><style>.a{fill:#0052e0;}.b{fill:#f5f5f5;}.c{fill:#ff4b55;}</style></defs><g transform="translate(0 0.002)"><path class="a" d="M29.483,108.276H.517A.522.522,0,0,1,0,107.75V88.8a.522.522,0,0,1,.517-.526H29.483A.522.522,0,0,1,30,88.8v18.95a.522.522,0,0,1-.517.526Z" transform="translate(0 -88.276)"/><path class="b" d="M30,88.8a.522.522,0,0,0-.517-.526H27.168l-9.582,6.388V88.276H12.414v6.388L2.831,88.276H.517A.522.522,0,0,0,0,88.8v1.361l8.221,5.481H0v5.263H8.221L0,106.388v1.361a.522.522,0,0,0,.517.526H2.831l9.582-6.388v6.388h5.172v-6.388l9.582,6.388h2.314A.522.522,0,0,0,30,107.75v-1.361l-8.221-5.481H30V95.644H21.779L30,90.164Z" transform="translate(0 -88.276)"/><path class="c" d="M30,96.7H16.552V88.276h-3.1V96.7H0v3.158H13.448v8.421h3.1V99.855H30Z" transform="translate(0 -88.276)"/><path class="c" d="M10.721,300.138.25,307.063a.514.514,0,0,0,.5.453h.712l11.156-7.378h-1.9Z" transform="translate(-0.235 -287.516)"/><path class="c" d="M315.86,300.138h-1.9l11.139,7.367a.518.518,0,0,0,.465-.516v-.433Z" transform="translate(-295.564 -287.516)"/><path class="c" d="M0,90.194l9.479,6.269h1.9L.3,89.137a.525.525,0,0,0-.3.476Z" transform="translate(0 -89.086)"/><path class="c" d="M302.038,95.655l10.5-6.942a.513.513,0,0,0-.5-.436H311.3l-11.155,7.378Z" transform="translate(-282.552 -88.277)"/></g></svg>