<svg xmlns="http://www.w3.org/2000/svg" xmlns:xlink="http://www.w3.org/1999/xlink" width="25" height="40" viewBox="0 0 25 40">
  <defs>
    <linearGradient id="linear-gradient" x1="1.346" y1="1.303" x2="-0.506" y2="-0.376" gradientUnits="objectBoundingBox">
      <stop offset="0" stop-color="#dda037"/>
      <stop offset="0.326" stop-color="#f1cf47"/>
      <stop offset="0.734" stop-color="#f1cf47"/>
      <stop offset="1" stop-color="#dda037"/>
    </linearGradient>
    <filter id="Path_10375" x="-18" y="-15" width="61" height="76" filterUnits="userSpaceOnUse">
      <feOffset dy="3" input="SourceAlpha"/>
      <feGaussianBlur stdDeviation="6" result="blur"/>
      <feFlood flood-color="#f6fafe"/>
      <feComposite operator="in" in2="blur"/>
      <feComposite in="SourceGraphic"/>
    </filter>
    <clipPath id="clip-mobile">
      <rect width="25" height="40"/>
    </clipPath>
  </defs>
  <g id="mobile" clip-path="url(#clip-mobile)">
    <g id="iphone" transform="translate(-96)">
      <g id="Group_10304" data-name="Group 10304" transform="translate(96)">
        <g transform="matrix(1, 0, 0, 1, 0, 0)" filter="url(#Path_10375)">
          <path id="Path_10375-2" data-name="Path 10375" d="M118.5,0h-20A2.5,2.5,0,0,0,96,2.5v35A2.5,2.5,0,0,0,98.5,40h20a2.5,2.5,0,0,0,2.5-2.5V2.5A2.5,2.5,0,0,0,118.5,0Zm-10,37.5A2.5,2.5,0,1,1,111,35,2.5,2.5,0,0,1,108.5,37.5Zm10-7.5h-20V5h20Z" transform="translate(-96)" fill="url(#linear-gradient)"/>
        </g>
      </g>
    </g>
  </g>
</svg>
