<svg xmlns="http://www.w3.org/2000/svg" xmlns:xlink="http://www.w3.org/1999/xlink" width="107.034" height="107.034" viewBox="0 0 107.034 107.034">
  <defs>
    <linearGradient id="linear-gradient" x1="0.5" y1="0.043" x2="0.5" y2="0.933" gradientUnits="objectBoundingBox">
      <stop offset="0" stop-color="#58f17b"/>
      <stop offset="1" stop-color="#16cd6f"/>
    </linearGradient>
    <filter id="Path" x="0" y="0" width="107.034" height="107.034" filterUnits="userSpaceOnUse">
      <feOffset dy="3" input="SourceAlpha"/>
      <feGaussianBlur stdDeviation="4.5" result="blur"/>
      <feFlood flood-color="#2bbd85" flood-opacity="0.502"/>
      <feComposite operator="in" in2="blur"/>
      <feComposite in="SourceGraphic"/>
    </filter>
  </defs>
  <g id="Group_10416" data-name="Group 10416" transform="translate(-749.503 -8070.3)">
    <path id="Rectangle" d="M-.291-.407,4.119,0V3.089H-.291Z" transform="translate(763.406 8081.248)" fill="#0aa756"/>
    <path id="Rectangle_Copy" data-name="Rectangle Copy" d="M-1.713-1.478,3.089,0l.278,4.3H-1.713Z" transform="translate(839.607 8156.42)" fill="#0aa756"/>
    <g id="Group_10379" data-name="Group 10379">
      <g transform="matrix(1, 0, 0, 1, 749.5, 8070.3)" filter="url(#Path)">
        <path id="Path-2" data-name="Path" d="M80.034,37.853V80.034L0,0H42.181Z" transform="translate(13.5 10.5)" fill="url(#linear-gradient)"/>
      </g>
      <path id="icon" d="M11.907,3.487,13.4,7.13l3.945.286a1.607,1.607,0,0,1,1.4,1.094,1.556,1.556,0,0,1-.5,1.682l-3.02,2.524.951,3.811a1.573,1.573,0,0,1-.6,1.682,1.615,1.615,0,0,1-1.8.067l-3.365-2.061L7.044,18.242a1.624,1.624,0,0,1-1.775-.059A1.59,1.59,0,0,1,4.655,16.5L5.6,12.69l-3.02-2.524a1.565,1.565,0,0,1-.53-1.682A1.59,1.59,0,0,1,3.511,7.4L7.456,7.13,8.954,3.5a1.6,1.6,0,0,1,2.953,0Z" transform="translate(804.028 8100.182)" fill="#fff"/>
    </g>
  </g>
</svg>
