<svg xmlns="http://www.w3.org/2000/svg" xmlns:xlink="http://www.w3.org/1999/xlink" width="28" height="28" viewBox="0 0 28 28">
  <defs>
    <linearGradient id="linear-gradient" x1="1.11" y1="1.353" x2="-0.163" y2="-0.343" gradientUnits="objectBoundingBox">
      <stop offset="0" stop-color="#dda037"/>
      <stop offset="0.326" stop-color="#f1cf47"/>
      <stop offset="0.734" stop-color="#f1cf47"/>
      <stop offset="1" stop-color="#dda037"/>
    </linearGradient>
    <filter id="Path_10387" x="-18" y="-15" width="64" height="64" filterUnits="userSpaceOnUse">
      <feOffset dy="3" input="SourceAlpha"/>
      <feGaussianBlur stdDeviation="6" result="blur"/>
      <feFlood flood-color="#f6fafe"/>
      <feComposite operator="in" in2="blur"/>
      <feComposite in="SourceGraphic"/>
    </filter>
    <clipPath id="clip-star">
      <rect width="28" height="28"/>
    </clipPath>
  </defs>
  <g id="star" clip-path="url(#clip-star)">
    <g transform="matrix(1, 0, 0, 1, 0, 0)" filter="url(#Path_10387)">
      <path id="Path_10387-2" data-name="Path 10387" d="M33.644,15.85a2.278,2.278,0,0,0-4.281,0l-2.638,6.813-.519.045-6.529.49a2.341,2.341,0,0,0-2.032,1.648,2.484,2.484,0,0,0,.692,2.583l5.448,4.765-.13.534-1.6,6.591a2.582,2.582,0,0,0,.865,2.538,2.158,2.158,0,0,0,2.551.089l6.01-3.874.476.312,5.578,3.607a2.158,2.158,0,0,0,2.551-.089,2.439,2.439,0,0,0,.865-2.538l-1.686-7.125.432-.356,5.016-4.409a2.4,2.4,0,0,0,.692-2.583,2.341,2.341,0,0,0-2.032-1.648l-7.048-.579Z" transform="translate(-17.53 -14.36)" fill="url(#linear-gradient)"/>
    </g>
  </g>
</svg>
