<svg xmlns="http://www.w3.org/2000/svg" xmlns:xlink="http://www.w3.org/1999/xlink" width="27" height="22" viewBox="0 0 27 22">
  <defs>
    <linearGradient id="linear-gradient" x1="0.688" y1="1.265" x2="0.373" y2="-0.295" gradientUnits="objectBoundingBox">
      <stop offset="0" stop-color="#dda037"/>
      <stop offset="0.326" stop-color="#f1cf47"/>
      <stop offset="0.734" stop-color="#f1cf47"/>
      <stop offset="1" stop-color="#dda037"/>
    </linearGradient>
    <filter id="Union_164" x="-18" y="-15" width="63" height="58" filterUnits="userSpaceOnUse">
      <feOffset dy="3" input="SourceAlpha"/>
      <feGaussianBlur stdDeviation="6" result="blur"/>
      <feFlood flood-color="#f6fafe"/>
      <feComposite operator="in" in2="blur"/>
      <feComposite in="SourceGraphic"/>
    </filter>
    <clipPath id="clip-templates">
      <rect width="27" height="22"/>
    </clipPath>
  </defs>
  <g id="templates" clip-path="url(#clip-templates)">
    <g transform="matrix(1, 0, 0, 1, 0, 0)" filter="url(#Union_164)">
      <path id="Union_164-2" data-name="Union 164" d="M2.7,22A2.725,2.725,0,0,1,0,19.249V2.749A2.725,2.725,0,0,1,2.7,0H24.3A2.726,2.726,0,0,1,27,2.749v16.5A2.727,2.727,0,0,1,24.3,22Zm14.04-2.062H24.3a.68.68,0,0,0,.673-.689V13.474H16.738ZM2.024,19.249a.683.683,0,0,0,.675.689h12.42V5.5H2.024Zm14.714-7.424h8.234V5.5H16.738Zm1.317,7.586V15.324h6.017v4.087ZM4.013,18.391V7.151H13.04v11.24Zm14.043-8.174V6.129h6.017v4.087Z" fill="url(#linear-gradient)"/>
    </g>
  </g>
</svg>
