<svg xmlns="http://www.w3.org/2000/svg" width="110.427" height="121.021" viewBox="0 0 110.427 121.021"><defs><style>.cls-5{fill:#dad7dc}.cls-6{fill:#009986}.cls-7{fill:#ffd422}</style></defs><g id="credit" transform="translate(39.5)"><g id="Group_940" data-name="Group 940" transform="translate(-39.5 67.026)"><path id="Path_3558" d="M-4.953 308.992h-31.938A2.614 2.614 0 00-39.5 311.6v43.22a2.614 2.614 0 002.609 2.609h31.938a2.614 2.614 0 002.609-2.609V311.6a2.6 2.6 0 00-2.609-2.608z" data-name="Path 3558" transform="translate(39.5 -303.435)" fill="#344e5c"/><path id="Path_3559" d="M3.545 320.1v43.22h-31.938V320.1z" data-name="Path 3559" transform="translate(31.002 -311.933)" fill="#ececec"/><path id="Path_3560" d="M16.434 288.526h-3.793a3.189 3.189 0 10-6.378 0H2.47A2.268 2.268 0 00.2 290.8v5.629h18.5V290.8a2.284 2.284 0 00-2.266-2.274zM9.452 290a1.45 1.45 0 111.45-1.45 1.454 1.454 0 01-1.45 1.45z" data-name="Path 3560" transform="translate(9.126 -285.337)" fill="#ffd25a"/><path id="Path_3561" d="M.2 319.791h18.5v3.02H.2z" data-name="Path 3561" transform="translate(9.126 -311.698)" fill="#ebbf54"/><g id="Group_939" data-name="Group 939" transform="translate(5.605 17.274)"><path id="Path_3562" d="M-15.64 358.873h25.947v1.256H-15.64z" class="cls-5" data-name="Path 3562" transform="translate(15.64 -358.873)"/><path id="Path_3563" d="M-15.64 377.9h25.947v1.256H-15.64z" class="cls-5" data-name="Path 3563" transform="translate(15.64 -373.43)"/><path id="Path_3564" d="M-15.64 396.823h25.947v1.256H-15.64z" class="cls-5" data-name="Path 3564" transform="translate(15.64 -387.909)"/><path id="Path_3565" d="M-15.64 415.747h25.947V417H-15.64z" class="cls-5" data-name="Path 3565" transform="translate(15.64 -402.387)"/><path id="Path_3566" d="M-15.64 434.774h25.947v1.256H-15.64z" class="cls-5" data-name="Path 3566" transform="translate(15.64 -416.945)"/><path id="Path_3567" d="M-15.64 453.7h25.947v1.256H-15.64z" class="cls-5" data-name="Path 3567" transform="translate(15.64 -431.424)"/><path id="Path_3568" d="M-15.64 472.621h25.947v1.256H-15.64z" class="cls-5" data-name="Path 3568" transform="translate(15.64 -445.902)"/></g></g><g id="Group_942" data-name="Group 942" transform="translate(-11.758)"><path id="Path_3569" d="M300.019 62.96l-2.419-2.866a7.668 7.668 0 015.755-1.856 4.284 4.284 0 004.862-4.087 8 8 0 018.574-7.188 4.5 4.5 0 003.336-.963l2.419 2.866a7.8 7.8 0 01-5.755 1.856 4.284 4.284 0 00-4.862 4.087 8.011 8.011 0 01-8.574 7.211 4.177 4.177 0 00-3.336.94z" class="cls-6" data-name="Path 3569" transform="translate(-246.157 -35.195)"/><path id="Path_3570" d="M309.733 99.815a8.473 8.473 0 01-4.416-1.409 4.243 4.243 0 00-3.359-.846l-.658-3.711a7.924 7.924 0 015.9 1.268 4.32 4.32 0 003.359.822 4.4 4.4 0 002.889-1.926 8 8 0 0111.017-1.95 4.352 4.352 0 003.383.822l.652 3.715a7.924 7.924 0 01-5.9-1.268 4.329 4.329 0 00-6.272 1.1 7.9 7.9 0 01-5.121 3.218 6.353 6.353 0 01-1.474.165z" class="cls-6" data-name="Path 3570" transform="translate(-248.988 -69.372)"/><path id="Path_3571" d="M123.7 128h-7.517A37.574 37.574 0 0078.6 165.584v-.07h8.222a5.243 5.243 0 015.238 5.238v47.92h61.708a7.509 7.509 0 007.517-7.517v-45.571A37.559 37.559 0 00123.7 128z" class="cls-7" data-name="Path 3571" transform="translate(-78.6 -97.933)"/><path id="Path_3572" d="M205.935 263.118A21.118 21.118 0 11184.818 242a21.118 21.118 0 0121.117 21.118z" data-name="Path 3572" transform="translate(-143.71 -185.154)" fill="#fff"/><path id="Path_3573" d="M212.184 3.758l-9.4 18.792H184l-9.4-18.792c4.7 0 4.7-3.758 9.4-3.758s4.7 3.758 9.419 3.758S198.114 0 202.788 0s4.698 3.758 9.396 3.758z" class="cls-7" data-name="Path 3573" transform="translate(-152.05)"/><path id="Path_3574" d="M224.909 99.758v.047a3.744 3.744 0 01-3.758 3.711h-18.793a3.758 3.758 0 010-7.517h18.792a3.785 3.785 0 013.759 3.759z" data-name="Path 3574" transform="translate(-170.412 -73.45)" fill="#00b39d"/><g id="Group_941" data-name="Group 941" transform="translate(33.614 66.242)"><path id="Path_3575" d="M236.546 287.285a.533.533 0 00-.376-.141h-2.87a5.588 5.588 0 00-1.081-2.4h3.9a.5.5 0 00.376-.141.533.533 0 00.141-.376v-1.715a.5.5 0 00-.141-.376.533.533 0 00-.376-.141H222.24a.5.5 0 00-.376.141.534.534 0 00-.141.376v2.232a.563.563 0 00.54.54h2.419c2.349 0 3.852.634 4.487 1.879h-6.93a.5.5 0 00-.376.141.534.534 0 00-.141.376v1.72a.5.5 0 00.141.376.533.533 0 00.376.141h7.141a3.282 3.282 0 01-1.715 2.091 7.66 7.66 0 01-3.547.728h-1.878a.563.563 0 00-.54.54v2.114a.576.576 0 00.141.376q3.206 3.418 8.315 9.537a.474.474 0 00.423.211h3.265a.489.489 0 00.493-.305.43.43 0 00-.07-.564q-4.862-5.99-7.658-8.95a8.43 8.43 0 004.6-1.832 6.3 6.3 0 002.161-3.9h2.8a.5.5 0 00.376-.141.533.533 0 00.141-.376v-1.715a.543.543 0 00-.141-.446z" data-name="Path 3575" transform="translate(-221.7 -282)" fill="#ff5023"/></g></g></g></svg>