<svg id="Layer_1" data-name="Layer 1" xmlns="http://www.w3.org/2000/svg" viewBox="0 0 130.98 91.57"><defs><style>.cls-4{fill:#ffd782}.cls-5{fill:#464655}.cls-6{fill:#c8d0e2}.cls-7{fill:#afb9d2}.cls-8{fill:#fec36f}.cls-9{fill:#959cb3}.cls-11{fill:#fff}</style></defs><g id="truck_info" data-name="truck info"><path id="Path_3597" data-name="Path 3597" d="M357 397.22h-20.68v-18.77h16.9z" transform="translate(-241.01 -350.71)" fill="#b5e0f8"/><path id="Path_3598" data-name="Path 3598" d="M266.85 429.14h101.38a1.88 1.88 0 001.88-1.88v-13.14H265v13.14a1.88 1.88 0 001.87 1.88z" transform="translate(-241.01 -350.71)" fill="#707487"/><path id="Path_3599" data-name="Path 3599" d="M336.32 414.12v-30h-7.51v30H265v7.51h105.11v-7.51z" transform="translate(-241.01 -350.71)" fill="#5b5e6e"/><g id="Group_945" data-name="Group 945"><path id="Path_3600" data-name="Path 3600" class="cls-4" d="M367.39 398.32l-8.77-2.5-2.72-15a7.52 7.52 0 00-7.39-6.17h-12.2a1.88 1.88 0 00-1.87 1.88v33.8h35.67v-8.44a3.76 3.76 0 00-2.72-3.57zm-25.44-3a3.75 3.75 0 01-3.76-3.75v-9.37a1.88 1.88 0 011.88-1.88h10.37a1.88 1.88 0 011.85 1.55l2.2 12.18a1.1 1.1 0 01-.89 1.28H342z" transform="translate(-241.01 -350.71)"/><path id="Path_3601" data-name="Path 3601" class="cls-4" d="M328.81 367.18h-38.59a28 28 0 01-27.13 33.63v13.31A1.88 1.88 0 00265 416h63.84a1.88 1.88 0 001.87-1.88v-45.06a1.88 1.88 0 00-1.87-1.88z" transform="translate(-241.01 -350.71)"/></g><circle id="Ellipse_139" data-name="Ellipse 139" class="cls-5" cx="110.33" cy="80.31" r="11.27"/><circle id="Ellipse_140" data-name="Ellipse 140" class="cls-6" cx="110.33" cy="80.3" r="7.51"/><circle id="Ellipse_141" data-name="Ellipse 141" class="cls-7" cx="110.33" cy="80.3" r="2.82"/><circle id="Ellipse_142" data-name="Ellipse 142" class="cls-5" cx="40.86" cy="80.31" r="11.27"/><circle id="Ellipse_143" data-name="Ellipse 143" class="cls-6" cx="40.86" cy="80.3" r="7.51"/><circle id="Ellipse_144" data-name="Ellipse 144" class="cls-7" cx="40.85" cy="80.3" r="2.82"/><path id="Path_3602" data-name="Path 3602" class="cls-8" d="M336.32 427.26h.68a1.89 1.89 0 001.68-1l4.08-8.16a3.74 3.74 0 013.36-2.07h10.38a3.74 3.74 0 013.35 2.07l4.08 8.16a1.89 1.89 0 001.68 1h4.47a1.88 1.88 0 001.88-1.87v-13.15a3.75 3.75 0 00-3.76-3.75h-33.8v16.9a1.88 1.88 0 001.88 1.87z" transform="translate(-241.01 -350.71)"/><path id="Path_3603" data-name="Path 3603" class="cls-7" d="M328.81 432.89H310a1.88 1.88 0 01-1.88-1.87v-7.52a1.89 1.89 0 011.88-1.87h18.78a1.88 1.88 0 011.88 1.88V431a1.88 1.88 0 01-1.85 1.89z" transform="translate(-241.01 -350.71)"/><g id="Group_946" data-name="Group 946"><path id="Path_3604" data-name="Path 3604" class="cls-9" d="M315.66 425.39a1.88 1.88 0 00-1.88 1.87v5.63h3.76v-5.63a1.87 1.87 0 00-1.88-1.87z" transform="translate(-241.01 -350.71)"/><path id="Path_3605" data-name="Path 3605" class="cls-9" d="M323.17 425.39a1.87 1.87 0 00-1.87 1.87v5.63h3.75v-5.63a1.87 1.87 0 00-1.88-1.87z" transform="translate(-241.01 -350.71)"/></g><path id="Path_3606" data-name="Path 3606" class="cls-8" d="M325.05 412.24h-56.33a1.87 1.87 0 01-1.87-1.87 1.88 1.88 0 011.87-1.88h56.33a1.88 1.88 0 011.88 1.88 1.88 1.88 0 01-1.88 1.87z" transform="translate(-241.01 -350.71)"/><g id="Group_948" data-name="Group 948"><g id="Group_947" data-name="Group 947"><path id="Path_3607" data-name="Path 3607" d="M263.4 350.71a22.39 22.39 0 1022.39 22.39 22.39 22.39 0 00-22.39-22.39z" transform="translate(-241.01 -350.71)" fill="#f0544a"/></g></g><path id="Path_3608" data-name="Path 3608" class="cls-11" d="M268.06 387.57a.93.93 0 01-.93.93h-5.6a.93.93 0 01-.93-.93v-14h-.93a.94.94 0 01-.94-.94v-3.73a.93.93 0 01.93-.93h7.47a.94.94 0 01.94.93z" transform="translate(-241.01 -350.71)"/><circle id="Ellipse_145" data-name="Ellipse 145" class="cls-11" cx="22.39" cy="11.67" r="3.73"/></g></svg>