<?xml version="1.0" encoding="utf-8"?>
<!-- Generator: Adobe Illustrator 23.1.0, SVG Export Plug-In . SVG Version: 6.00 Build 0)  -->
<svg version="1.1" id="Layer_1" xmlns="http://www.w3.org/2000/svg" xmlns:xlink="http://www.w3.org/1999/xlink" x="0px" y="0px"
	 width="47.358px" height="48px" viewBox="0 0 47.358 48" style="enable-background:new 0 0 47.358 48;" xml:space="preserve">
<style type="text/css">
	.st0{fill:#00B892;}
</style>
<g>
	<g id="Done__x2014__Displayed_on_the_left_side_of_a_contextual_action_bar__x28_CAB_x29__to_allow_the_user_to_dismiss_it._2_">
		<path class="st0" d="M20.648,33.643l-9.129-9.13c-0.937-0.937-0.937-2.457,0-3.394l0,0c0.937-0.937,2.457-0.937,3.394,0
			l5.803,5.802c0.777,0.777,2.032,0.789,2.824,0.029L42.688,8.571c0.956-0.918,2.475-0.887,3.393,0.069l0,0
			c0.918,0.956,0.887,2.475-0.069,3.393L23.473,33.672C22.681,34.433,21.425,34.42,20.648,33.643z"/>
	</g>
	<g>
		<path class="st0" d="M42.649,28.157c-2.308,10.182-12.902,17.519-24.034,14.261c-7.042-2.061-12.449-8.13-13.578-15.38
			C3.185,15.149,12.443,4.8,24,4.8c2.8,0,5.433,0.667,7.9,1.722c0.889,0.38,1.915,0.223,2.598-0.46l0.108-0.108
			c1.176-1.176,0.84-3.207-0.689-3.859c-3.626-1.548-7.631-2.384-12.013-2.004C10.908,1.045,1.746,9.695,0.234,20.628
			C-1.797,35.309,9.691,48,24,48c11.478,0,20.926-7.917,23.303-18.711c0.327-1.483-0.833-2.889-2.351-2.889h0
			C43.875,26.4,42.887,27.108,42.649,28.157z"/>
	</g>
</g>
</svg>
